<?xml version="1.0" encoding="utf-8"?>
<!-- Generator: Adobe Illustrator 25.4.1, SVG Export Plug-In . SVG Version: 6.00 Build 0)  -->
<svg version="1.1" id="Layer_1" xmlns="http://www.w3.org/2000/svg" xmlns:xlink="http://www.w3.org/1999/xlink" x="0px" y="0px"
	 viewBox="0 0 355 109" style="enable-background:new 0 0 355 109;" xml:space="preserve">
<style type="text/css">
	.st0{fill:#A87BC9;}
	.st1{fill:#652F6C;}
	.st2{fill:#411D56;}
</style>
<g>
	<path d="M119.1,81c-8.3,0-16.1-2.4-21.6-5.2l1.9-12.3c6.2,3.8,13.8,6.2,19.8,6.2c4.5,0,6.6-1.5,6.6-4c0-2.7-1.5-3.8-8.9-5.7
		c-13.2-3.4-18.7-7-18.7-16.8c0-9.7,7.3-16.3,20.1-16.3c7.1,0,13.9,1.4,19.4,3.9l-2,12.3c-5.7-3.1-12.2-4.9-17.2-4.9
		c-3.8,0-5.6,1.4-5.6,3.4c0,2.1,1.5,3.3,8.9,5.3c13.9,3.7,18.8,7.3,18.8,17C140.6,75,133,81,119.1,81"/>
	<path d="M176.4,80.7c-4.7,0-8-0.9-11-1.8v18.7l-16.1,2.5V27.8h14.2l1.1,7c3.6-4.1,8.3-8,15.1-8c10.8,0,18.8,8.1,18.8,25.9
		C198.5,72.4,188,80.7,176.4,80.7 M174.4,41.1c-3.5,0-6.3,2.1-9,5.3v19.9c2.2,1.1,4.1,1.6,7.4,1.6c5.5,0,9.5-4.2,9.5-14.3
		C182.3,44.9,179,41.1,174.4,41.1"/>
	<polygon points="207.8,80.1 207.8,5.5 224,2.9 224,80.1 	"/>
	<rect x="236.4" y="27.7" width="16.3" height="52.4"/>
	<path d="M288,80.9c-11.2,0-19-4.1-19-17.4V40.9h-7V27.7h7V12.1l16-2.5v18.1h9.9l2,13.2h-12v20c0,4.3,2,6.2,6.4,6.2
		c1.4,0,2.7-0.2,3.8-0.5l2,13.3C294.7,80.6,292.2,80.9,288,80.9"/>
	<rect x="308.7" y="29.6" class="st0" width="7" height="50.6"/>
	<path class="st0" d="M347.2,81c-7.9,0-13.2-3.1-13.2-12.4v-33h-7.8v-6h7.8V12l7-1.2v18.7h11.7l1,6H341v31.9c0,5.1,2,7.4,7.5,7.4
		c1.6,0,3.5-0.3,4.7-0.5l1.1,5.9C352.7,80.6,350.2,81,347.2,81"/>
	<path d="M250.8,11.6c0,3.5-2.8,6.3-6.3,6.3s-6.3-2.8-6.3-6.3s2.8-6.3,6.3-6.3C248,5.3,250.8,8.2,250.8,11.6"/>
</g>
<g>
	<path class="st0" d="M317.9,11.7c0,3.2-2.6,5.7-5.7,5.7c-3.2,0-5.7-2.6-5.7-5.7c0-3.2,2.6-5.7,5.7-5.7
		C315.3,5.9,317.9,8.5,317.9,11.7"/>
	<path class="st0" d="M76.8,10.5c-1.9-1.6-4-3.1-6.3-4.4C48.5-6.6,20.3,0.9,7.6,23C-5.1,45,2.4,73.2,24.5,85.9
		c2.3,1.3,4.6,2.4,6.9,3.3L76.8,10.5z"/>
	<path class="st1" d="M8.6,97.5c1.9,1.6,4,3.1,6.3,4.4c22,12.7,50.2,5.2,62.9-16.9C90.5,63,83,34.8,60.9,22.1
		c-2.3-1.3-4.6-2.4-6.9-3.3L8.6,97.5z"/>
</g>
<g>
	<path class="st2" d="M61,22c-2.3-1.3-4.6-2.4-6.9-3.3L17.9,81.3c2,1.7,4.2,3.2,6.6,4.6c2.3,1.3,4.6,2.4,6.9,3.3l36.2-62.6
		C65.5,24.9,63.3,23.4,61,22"/>
</g>
</svg>
